<?xml version="1.0" encoding="utf-8"?>
<!-- Generator: Adobe Illustrator 19.1.0, SVG Export Plug-In . SVG Version: 6.00 Build 0)  -->
<svg version="1.1" id="Layer_1" xmlns="http://www.w3.org/2000/svg" xmlns:xlink="http://www.w3.org/1999/xlink" x="0px" y="0px"
	 viewBox="-196 244 121.5 25" style="enable-background:new -196 244 121.5 25;" xml:space="preserve">
<style type="text/css">
	.st0{fill:#33FFA9;}
	.st1{fill:#FFFFFF;}
</style>
<g>
	<path class="st0" d="M-190.5,256.2l-0.9,0.3l0.9,0.3l7.3,2.5v3.7l-11.8-5V255l11.8-5v3.7L-190.5,256.2z"/>
	<path class="st0" d="M-176.3,268.5h-3.5l7.3-24h3.5L-176.3,268.5z"/>
	<g>
		<path class="st1" d="M-153.4,261.6h-5.7l-0.9,2.8h-3.8l5.5-15h4.2l5.5,15h-3.9L-153.4,261.6z M-154.3,258.8l-1.9-5.5l-1.9,5.5
			H-154.3z"/>
		<path class="st1" d="M-135.7,253.7c0.8,0.9,1.2,2.2,1.2,3.8v6.9h-3.6v-6.5c0-0.8-0.2-1.4-0.6-1.9c-0.4-0.4-1-0.7-1.7-0.7
			c-0.7,0-1.3,0.2-1.8,0.7c-0.4,0.5-0.7,1.1-0.7,2v6.3h-3.6v-11.9h3.6v2.2c0.3-0.7,0.8-1.3,1.5-1.7c0.7-0.4,1.5-0.6,2.4-0.6
			C-137.6,252.3-136.5,252.7-135.7,253.7z"/>
		<path class="st1" d="M-124.6,252.9c0.7,0.4,1.1,1,1.4,1.7v-6h3.6v15.8h-3.6v-2.2c-0.3,0.7-0.8,1.3-1.4,1.7
			c-0.7,0.4-1.4,0.6-2.3,0.6c-1,0-1.9-0.2-2.6-0.7c-0.8-0.5-1.4-1.2-1.8-2.1c-0.4-0.9-0.7-2-0.7-3.2c0-1.3,0.2-2.3,0.7-3.3
			s1.1-1.6,1.8-2.1c0.8-0.5,1.7-0.7,2.6-0.7C-126,252.3-125.3,252.5-124.6,252.9z M-127.7,256.2c-0.5,0.5-0.7,1.2-0.7,2.1
			s0.2,1.6,0.7,2.1c0.5,0.5,1.1,0.8,1.9,0.8c0.8,0,1.4-0.3,1.9-0.8c0.5-0.5,0.7-1.2,0.7-2.1c0-0.9-0.2-1.6-0.7-2.1
			c-0.5-0.5-1.1-0.8-1.9-0.8C-126.6,255.5-127.2,255.7-127.7,256.2z"/>
		<path class="st1" d="M-111,252.9c0.7-0.4,1.5-0.6,2.3-0.6v3.9h-1c-1,0-1.7,0.2-2.2,0.6c-0.5,0.4-0.8,1.1-0.8,2.1v5.4h-3.6v-11.9
			h3.6v2.2C-112.3,253.9-111.7,253.4-111,252.9z"/>
		<path class="st1" d="M-95.3,259h-8.3c0,0.9,0.3,1.5,0.7,1.9c0.4,0.4,0.9,0.6,1.6,0.6c0.5,0,1-0.1,1.3-0.4c0.4-0.3,0.6-0.6,0.7-1
			h3.9c-0.2,0.8-0.5,1.6-1,2.3c-0.5,0.7-1.2,1.2-2,1.6c-0.8,0.4-1.7,0.6-2.7,0.6c-1.2,0-2.2-0.2-3.1-0.7c-0.9-0.5-1.6-1.2-2.1-2.1
			c-0.5-0.9-0.8-2-0.8-3.2c0-1.3,0.3-2.3,0.8-3.3s1.2-1.6,2.1-2.1c0.9-0.5,1.9-0.7,3.1-0.7c1.2,0,2.2,0.2,3.1,0.7
			c0.9,0.5,1.6,1.2,2.1,2c0.5,0.9,0.7,1.9,0.7,3C-95.2,258.3-95.2,258.7-95.3,259z M-99.5,255.7c-0.4-0.4-1-0.6-1.6-0.6
			c-0.7,0-1.2,0.2-1.7,0.6s-0.7,1-0.7,1.7h4.6C-98.8,256.7-99,256.1-99.5,255.7z"/>
		<path class="st1" d="M-75.2,252.4l-3,11.9h-4.1l-2.2-8l-2.2,8h-4.1l-3-11.9h3.6l1.6,8.6l2.2-8.6h3.9l2.3,8.6l1.6-8.6H-75.2z"/>
	</g>
</g>
</svg>
